<?xml version="1.0" encoding="UTF-8" standalone="no"?><!DOCTYPE svg PUBLIC "-//W3C//DTD SVG 1.1//EN" "http://www.w3.org/Graphics/SVG/1.1/DTD/svg11.dtd"><svg width="100%" height="100%" viewBox="0 0 1700 500" version="1.1" xmlns="http://www.w3.org/2000/svg" xmlns:xlink="http://www.w3.org/1999/xlink" xml:space="preserve" xmlns:serif="http://www.serif.com/" style="fill-rule:evenodd;clip-rule:evenodd;stroke-linejoin:round;stroke-miterlimit:2;"><g><g><path d="M551.747,409.908l-30.209,-0l-12.708,-35l-54.583,-0l-12.709,35l-30.208,-0l59.583,-153.959l21.875,0l58.959,153.959Zm-51.042,-60.625l-18.958,-52.709l-19.167,52.709l38.125,-0Z" style="fill:#dd0031;fill-rule:nonzero;"/><path d="M594.455,409.908l-27.083,-0l-0,-113.125l26.666,-0l0,15.833c3.056,-5.833 7.709,-10.417 13.959,-13.75c6.25,-3.333 13.472,-5 21.666,-5c12.361,-0 22.848,4.097 31.459,12.292c8.611,8.194 12.916,19.791 12.916,34.791l0,68.959l-27.291,-0l-0,-61.459c-0,-9.305 -2.223,-16.597 -6.667,-21.875c-4.444,-5.278 -10.486,-7.916 -18.125,-7.916c-8.056,-0 -14.653,2.812 -19.792,8.437c-5.139,5.625 -7.708,12.882 -7.708,21.771l0,61.042Z" style="fill:#dd0031;fill-rule:nonzero;"/><path d="M787.372,310.324l-0,-13.541l25.416,-0l0,101.875c0,18.055 -5.764,32.43 -17.291,43.125c-11.528,10.694 -26.528,16.041 -45,16.041c-19.167,0 -36.32,-5.416 -51.459,-16.25l11.042,-20.625c12.639,8.889 25.903,13.334 39.792,13.334c11.389,-0 20.347,-3.021 26.875,-9.063c6.527,-6.042 9.791,-13.993 9.791,-23.854l0,-6.667c-9.166,10.278 -21.18,15.417 -36.041,15.417c-16.528,-0 -30.07,-5.486 -40.625,-16.458c-10.556,-10.973 -15.834,-24.792 -15.834,-41.459c0,-16.944 5.486,-30.833 16.459,-41.666c10.972,-10.973 24.652,-16.459 41.041,-16.459c14.445,0 26.389,5.417 35.834,16.25Zm-32.917,76.042c9.444,-0 17.292,-3.195 23.542,-9.583c6.25,-6.528 9.375,-14.653 9.375,-24.375c-0,-9.723 -3.125,-17.709 -9.375,-23.959c-6.25,-6.389 -14.098,-9.583 -23.542,-9.583c-9.583,-0 -17.5,3.194 -23.75,9.583c-6.25,6.25 -9.375,14.236 -9.375,23.959c0,9.722 3.125,17.847 9.375,24.375c6.25,6.388 14.167,9.583 23.75,9.583Z" style="fill:#dd0031;fill-rule:nonzero;"/><path d="M889.872,412.616c-15.834,-0 -28.299,-4.41 -37.396,-13.229c-9.097,-8.82 -13.646,-21.077 -13.646,-36.771l0,-65.833l27.292,-0l-0,65.833c-0,7.639 2.118,13.75 6.354,18.333c4.236,4.584 10.035,6.875 17.396,6.875c7.5,0 13.368,-2.291 17.604,-6.875c4.236,-4.583 6.354,-10.694 6.354,-18.333l0,-65.833l27.292,-0l-0,65.833c-0,15.694 -4.549,27.951 -13.646,36.771c-9.097,8.819 -21.632,13.229 -37.604,13.229Z" style="fill:#dd0031;fill-rule:nonzero;"/><rect x="967.163" y="251.574" width="27.083" height="158.333" style="fill:#dd0031;fill-rule:nonzero;"/><path d="M1108.83,311.158l0,-14.375l25.833,-0l0,113.125l-25.833,-0l0,-13.959c-9.861,11.111 -22.153,16.667 -36.875,16.667c-16.25,-0 -29.653,-5.695 -40.208,-17.083c-10.556,-11.389 -15.834,-25.625 -15.834,-42.709c0,-17.083 5.278,-31.111 15.834,-42.083c10.694,-11.111 24.097,-16.667 40.208,-16.667c14.444,0 26.736,5.695 36.875,17.084Zm0.625,42.083c0,-9.583 -3.125,-17.708 -9.375,-24.375c-6.25,-6.667 -14.236,-10 -23.958,-10c-9.723,-0 -17.709,3.333 -23.959,10c-6.111,6.805 -9.166,14.93 -9.166,24.375c-0,9.583 3.055,17.778 9.166,24.583c6.25,6.667 14.236,10 23.959,10c9.722,0 17.708,-3.333 23.958,-10c6.25,-6.666 9.375,-14.861 9.375,-24.583Z" style="fill:#dd0031;fill-rule:nonzero;"/><path d="M1189.45,409.908l-27.083,-0l-0,-113.125l26.041,-0l0,15.625c6.945,-12.362 17.431,-18.542 31.459,-18.542c4.722,-0 9.236,0.764 13.541,2.292l-2.291,26.041c-4.861,-1.528 -9.236,-2.291 -13.125,-2.291c-8.75,-0 -15.695,2.951 -20.834,8.854c-5.139,5.902 -7.708,14.548 -7.708,25.937l0,55.209Z" style="fill:#dd0031;fill-rule:nonzero;"/><path d="M1242.16,413.241c-4.583,-0 -8.472,-1.563 -11.666,-4.688c-3.195,-3.125 -4.792,-6.979 -4.792,-11.562c0,-4.445 1.597,-8.195 4.792,-11.25c3.194,-3.056 7.083,-4.583 11.666,-4.583c4.445,-0 8.195,1.527 11.25,4.583c3.056,3.055 4.584,6.805 4.584,11.25c-0,4.583 -1.528,8.437 -4.584,11.562c-3.055,3.125 -6.805,4.688 -11.25,4.688Z" style="fill-rule:nonzero;"/><path d="M1344.45,412.199c-22.5,0 -41.319,-7.291 -56.458,-21.875c-15.139,-14.722 -22.709,-33.68 -22.709,-56.875c0,-23.333 7.709,-42.5 23.125,-57.5c15.556,-15.139 34.375,-22.708 56.459,-22.708c13.611,-0 26.354,2.917 38.229,8.75c11.875,5.833 21.215,13.68 28.021,23.542l-19.375,18.541c-12.5,-15.555 -27.709,-23.333 -45.625,-23.333c-14.445,-0 -26.667,5 -36.667,15c-9.861,10.139 -14.792,22.708 -14.792,37.708c0,14.861 4.861,27.153 14.584,36.875c9.722,9.722 21.944,14.584 36.666,14.584c18.889,-0 34.375,-7.778 46.459,-23.334l19.791,17.917c-7.361,9.861 -17.014,17.778 -28.958,23.75c-11.944,5.972 -24.861,8.958 -38.75,8.958Z" style="fill-rule:nonzero;"/><path d="M1514.04,311.158l0,-14.375l25.834,-0l-0,113.125l-25.834,-0l0,-13.959c-9.861,11.111 -22.152,16.667 -36.875,16.667c-16.25,-0 -29.652,-5.695 -40.208,-17.083c-10.556,-11.389 -15.833,-25.625 -15.833,-42.709c-0,-17.083 5.277,-31.111 15.833,-42.083c10.694,-11.111 24.097,-16.667 40.208,-16.667c14.445,0 26.736,5.695 36.875,17.084Zm0.625,42.083c0,-9.583 -3.125,-17.708 -9.375,-24.375c-6.25,-6.667 -14.236,-10 -23.958,-10c-9.722,-0 -17.708,3.333 -23.958,10c-6.111,6.805 -9.167,14.93 -9.167,24.375c0,9.583 3.056,17.778 9.167,24.583c6.25,6.667 14.236,10 23.958,10c9.722,0 17.708,-3.333 23.958,-10c6.25,-6.666 9.375,-14.861 9.375,-24.583Z" style="fill-rule:nonzero;"/><path d="M1639.04,381.991l8.542,21.25c-8.889,6.25 -19.792,9.375 -32.708,9.375c-25.834,-0 -38.75,-14.722 -38.75,-44.167l-0,-48.75l-18.75,0l-0,-22.916l19.166,-0l0,-40l26.875,-0l0,40l37.917,-0l0,22.916l-37.917,0l0,47.709c0,13.611 5.486,20.416 16.459,20.416c6.389,0 12.777,-1.944 19.166,-5.833Z" style="fill-rule:nonzero;"/></g><g><g><path d="M296.526,205.785c-0.164,-5.112 1.179,-10.333 4.181,-14.964c3.001,-4.631 7.219,-7.99 11.951,-9.928c0.163,5.11 -1.182,10.332 -4.183,14.963c-3.001,4.631 -7.218,7.99 -11.949,9.929Z" style="fill:#1a1a1a;"/><path d="M361.833,248.112c4.732,-1.939 8.948,-5.298 11.95,-9.929c3.001,-4.631 4.346,-9.852 4.183,-14.963c-4.734,1.937 -8.95,5.298 -11.951,9.928c-3.001,4.631 -4.347,9.852 -4.182,14.964Z" style="fill:#1a1a1a;"/><path d="M281.404,274.937c-14.744,21.993 -36.207,37.228 -58.191,47.009c-22.129,9.847 -70.559,46.194 -11.006,85.481c60.183,38.317 73.582,-20.735 73.533,-44.956c-0.049,-24.222 5.159,-50.222 19.429,-72.765c0.066,-0.106 0.133,-0.211 0.199,-0.315l-23.964,-14.454Z" style="fill:#1a1a1a;"/><path d="M332.549,221.75c-0,-0 -2.742,-2.901 -5.168,-1.537c-2.426,1.366 -0.45,3.336 -0.298,4.817c0.153,1.482 -1.569,3.477 -0.257,5.019c0.068,0.078 0.134,0.153 0.199,0.222c0.091,0.032 0.186,0.061 0.284,0.091c1.942,0.567 3.061,-1.819 4.474,-2.286c1.415,-0.465 4.021,0.534 4.275,-2.239c0.257,-2.771 -3.509,-4.087 -3.509,-4.087" style="fill:#1a1a1a;"/><path d="M268.5,403.765c2.088,-0.152 6.366,0.376 16.804,-17.052c15.024,-31.123 40.638,-35.336 65.61,-15.133c6.885,5.571 13.764,13.495 18.806,24.725c5.756,12.82 -5.333,12.842 -9.38,4.979c-2.789,-5.413 -5.804,-14.326 -15.605,-22.013c-23.205,-18.197 -39.99,-9.662 -51.211,15.363c-5.764,12.854 -19.248,29.169 -44.097,15.481c-24.851,-13.686 -0.826,-21.441 19.073,-6.35" style="fill:#1a1a1a;"/></g><path d="M240.396,68.39l-0,368.482c0.365,0.161 0.716,0.322 1.082,0.475c7.849,-3.42 15.588,-7.067 23.174,-10.933c4.714,4.458 10.275,8.573 16.583,12.3c-12.351,10.568 -22.824,18.088 -29.928,21.187l-9.829,4.29l-9.83,-4.29c-93.137,-40.627 -174.463,-112.453 -174.463,-221.302l0,-141.042l25.579,1.03c42.987,1.725 110.252,-23.335 143.184,-50.134l15.53,-12.644l15.53,12.644c32.923,26.799 100.189,51.859 143.183,50.134l25.579,-1.03l0,51.721c-7.893,-1.411 -16.129,-2.463 -24.592,-3.107l-0,-23.013c-55.923,2.251 -128.538,-30.264 -159.7,-55.631c-0.351,0.285 -0.717,0.578 -1.082,0.863Z" style="fill:url(#_Linear1);"/><path d="M240.919,312.817l-46.674,-0l-21.624,59.552l-51.399,-0l101.381,-261.958l18.381,-0.227l-0.022,69.552l-32.538,89.48l32.509,0l-0.014,43.601Z" style="fill:#fff;"/><path d="M304.968,289.905c14.036,-21.99 18.119,-14.331 52.549,-7.119c3.873,0.81 7.462,1.08 10.785,0.921l14.837,30.38c1.386,2.852 4.822,4.017 7.676,2.6c2.853,-1.416 4.04,-4.877 2.655,-7.729l-13.573,-27.792c4.636,-1.898 8.517,-4.671 11.719,-7.728l28.952,18.764c2.663,1.726 6.235,0.947 7.977,-1.741c1.741,-2.687 0.995,-6.266 -1.668,-7.992l-27.873,-18.065c3.666,-5.69 5.252,-10.42 5.252,-10.42c44.003,-30.919 48.19,-82.807 48.19,-82.807c-33.459,-6.479 -72.521,4.142 -72.521,4.142c-3.178,-2.232 -12.298,-7.796 -12.298,-7.796c0,0 -2.915,-2.004 -6.026,-4.085c-2.295,-1.535 -4.696,-3.112 -6.112,-3.956c0,0 -6.26,-39.996 -25.838,-67.891c0,0 -45.654,25.013 -55.906,77.807c0,-0 -3.671,3.378 -7.366,9.049l-27.873,-18.065c-2.663,-1.726 -6.234,-0.946 -7.976,1.742c-1.742,2.688 -0.996,6.265 1.667,7.991l28.954,18.766c-1.483,4.171 -2.43,8.845 -2.269,13.853l-30.911,-1.039c-3.171,-0.101 -5.843,2.398 -5.971,5.579c-0.128,3.184 2.339,5.846 5.509,5.946l33.789,1.135c1.212,3.099 2.924,6.264 5.245,9.469c20.785,28.676 29.42,29.089 14.668,51.321c-0.068,0.102 -0.137,0.205 -0.205,0.307l23.962,14.453Zm103.821,-102.11c9.475,-4.996 24.671,-11.638 38.268,-11.471c-0,-0 -8.16,25.228 -29.845,47.547c-18.177,18.709 -27.721,-25.899 -8.423,-36.076Zm-79.282,26.038c0,0 2.151,-28.673 -16.47,-37.975c-18.62,-9.304 -32.145,6.811 -32.145,6.811c-0,-0 -5.214,43.964 48.615,31.164Zm2.805,-75.605c0.691,-10.688 0.547,-27.273 -5.159,-39.616c0,-0 -19.694,17.752 -31.211,46.661c-9.654,24.234 34.96,14.727 36.37,-7.045Zm8.609,83.003c0,-0 25.296,-13.673 41.392,-0.474c16.097,13.196 6.911,32.124 6.911,32.124c-0,-0 -38.002,22.714 -48.303,-31.65Z" style="fill:#1a1a1a;"/></g></g><defs><linearGradient id="_Linear1" x1="0" y1="0" x2="1" y2="0" gradientUnits="userSpaceOnUse" gradientTransform="matrix(376.284,5.34021,-5.34021,376.284,50.7074,241.24)"><stop offset="0" style="stop-color:#dd0031;stop-opacity:1"/><stop offset="1" style="stop-color:#c3012f;stop-opacity:1"/></linearGradient></defs></svg>